# xmcd
#
# Track frame offsets:
#	150
#	20223
#	36204
#	54156
#	73745
#	89373
#
# Disc length: 1423 seconds
#
# Revision: 1
# Processed by: cddbd v1.5.2PL0 Copyright (c) Steve Scherf et al.
# Submitted via: audiograbber 1.83.01
#
DISCID=4c058d06
DTITLE=Ollie Fox and the Songs - Thank the Stars Vol 1
DYEAR=1900
DGENRE=
TTITLE0=Green Lake
TTITLE1=Bukowski
TTITLE2=I'm Breaking Down
TTITLE3=Clean Up
TTITLE4=Reno
TTITLE5=Morella and the Saint
EXTD=
EXTT0=
EXTT1=
EXTT2=
EXTT3=
EXTT4=
EXTT5=
PLAYORDER=
